<?xml version="1.0" encoding="UTF-8" standalone="no"?>
<!-- Created with Inkscape (http://www.inkscape.org/) -->

<svg
   xmlns:dc="http://purl.org/dc/elements/1.1/"
   xmlns:cc="http://creativecommons.org/ns#"
   xmlns:rdf="http://www.w3.org/1999/02/22-rdf-syntax-ns#"
   xmlns:svg="http://www.w3.org/2000/svg"
   xmlns="http://www.w3.org/2000/svg"
   xmlns:xlink="http://www.w3.org/1999/xlink"
   xmlns:sodipodi="http://sodipodi.sourceforge.net/DTD/sodipodi-0.dtd"
   xmlns:inkscape="http://www.inkscape.org/namespaces/inkscape"
   width="100"
   height="100"
   viewBox="0 0 26.458333 26.458334"
   version="1.1"
   id="svg8"
   inkscape:version="0.92.2 (5c3e80d, 2017-08-06)"
   sodipodi:docname="asteroid2.svg"
   inkscape:export-filename="H:\LD40\LD40\core\assets\asteroid1.png"
   inkscape:export-xdpi="61.439999"
   inkscape:export-ydpi="61.439999">
  <defs
     id="defs2">
    <linearGradient
       inkscape:collect="always"
       id="linearGradient2910">
      <stop
         style="stop-color:#412a01;stop-opacity:1;"
         offset="0"
         id="stop2906" />
      <stop
         style="stop-color:#919191;stop-opacity:1"
         offset="1"
         id="stop2908" />
    </linearGradient>
    <inkscape:path-effect
       effect="spiro"
       id="path-effect2900"
       is_visible="true" />
    <inkscape:path-effect
       effect="spiro"
       id="path-effect1368"
       is_visible="true" />
    <linearGradient
       inkscape:collect="always"
       xlink:href="#linearGradient2910"
       id="linearGradient2912"
       x1="0.091905199"
       y1="294.75388"
       x2="24.479805"
       y2="276.91364"
       gradientUnits="userSpaceOnUse" />
  </defs>
  <sodipodi:namedview
     id="base"
     pagecolor="#ffffff"
     bordercolor="#666666"
     borderopacity="1.0"
     inkscape:pageopacity="0.0"
     inkscape:pageshadow="2"
     inkscape:zoom="7.9195959"
     inkscape:cx="46.080348"
     inkscape:cy="51.080666"
     inkscape:document-units="mm"
     inkscape:current-layer="layer1"
     showgrid="false"
     inkscape:pagecheckerboard="true"
     borderlayer="true"
     units="px"
     inkscape:window-width="2036"
     inkscape:window-height="995"
     inkscape:window-x="604"
     inkscape:window-y="127"
     inkscape:window-maximized="0" />
  <metadata
     id="metadata5">
    <rdf:RDF>
      <cc:Work
         rdf:about="">
        <dc:format>image/svg+xml</dc:format>
        <dc:type
           rdf:resource="http://purl.org/dc/dcmitype/StillImage" />
        <dc:title></dc:title>
      </cc:Work>
    </rdf:RDF>
  </metadata>
  <g
     inkscape:label="Ebene 1"
     inkscape:groupmode="layer"
     id="layer1"
     transform="translate(0,-270.54165)">
    <path
       style="fill:url(#linearGradient2912);stroke:#000000;stroke-width:0.24500921px;stroke-linecap:butt;stroke-linejoin:miter;stroke-opacity:1;fill-opacity:1"
       d="m 8.174106,274.44809 c 0.015057,0.25972 -0.095529,0.51935 -0.2767412,0.70602 -0.1812121,0.18666 -0.4280923,0.30286 -0.6842223,0.34846 -0.2561301,0.0456 -0.5212523,0.0234 -0.7737378,-0.0393 -0.2524856,-0.0627 -0.4934953,-0.16511 -0.7267683,-0.28029 -0.4665462,-0.23035 -0.9120555,-0.51541 -1.4127242,-0.65704 -0.2503343,-0.0708 -0.5136955,-0.1043 -0.7719036,-0.0725 -0.2582081,0.0318 -0.5112983,0.13149 -0.7060187,0.30402 -0.1462669,0.1296 -0.2566811,0.2974 -0.3280658,0.47931 -0.071385,0.18192 -0.1044641,0.3777 -0.1078484,0.5731 -0.00677,0.39078 0.1031641,0.77424 0.2373121,1.14134 0.1341481,0.3671 0.2938203,0.726 0.3932618,1.10397 0.099441,0.37798 0.1361327,0.78345 0.0219,1.15722 -0.080272,0.26265 -0.2318688,0.49898 -0.4100544,0.70798 -0.1781856,0.209 -0.3833347,0.39304 -0.5863603,0.578 -0.2030256,0.18496 -0.4054512,0.37245 -0.5769516,0.58697 -0.1715003,0.21452 -0.3121293,0.45857 -0.3756702,0.72577 -0.073782,0.31026 -0.039997,0.63997 0.061,0.94247 0.1009967,0.3025 0.2668024,0.5799 0.4562846,0.83642 0.3789644,0.51304 0.8569117,0.95302 1.1842555,1.50044 0.4290146,0.71745 0.5686016,1.56451 0.74249,2.38216 0.187829,0.8832 0.4272294,1.76314 0.8345842,2.56899 0.4073549,0.80584 0.9936076,1.53893 1.7641312,2.00969 1.0481352,0.64037 2.3298434,0.74404 3.5577654,0.77343 1.9395062,0.0464 3.9598622,-0.0352 5.7233602,0.77343 0.923464,0.42345 1.723429,1.07012 2.586455,1.60611 0.431514,0.26799 0.88207,0.50983 1.361634,0.67729 0.479564,0.16746 0.990206,0.25921 1.496839,0.2225 0.733455,-0.0531 1.442711,-0.38344 1.958767,-0.90733 0.516056,-0.5239 0.835253,-1.2363 0.887444,-1.96982 0.04865,-0.68371 -0.128015,-1.36891 -0.4112,-1.99311 -0.283186,-0.62421 -0.670393,-1.19488 -1.064125,-1.75595 -0.393733,-0.56107 -0.797349,-1.11826 -1.118091,-1.72402 -0.320742,-0.60577 -0.558114,-1.26727 -0.593103,-1.95182 -0.04197,-0.82116 0.211522,-1.63953 0.621704,-2.35213 0.410183,-0.71261 0.971629,-1.32749 1.574829,-1.88625 0.72179,-0.66861 1.52983,-1.29074 1.979974,-2.1656 0.466473,-0.9066 0.481243,-2.02659 0.06249,-2.95619 -0.418754,-0.92961 -1.25603,-1.65519 -2.228085,-1.9628 -0.793455,-0.25109 -1.643476,-0.23264 -2.475481,-0.21298 -0.832005,0.0197 -1.682471,0.0356 -2.474452,-0.22014 -1.028446,-0.33205 -1.854449,-1.08537 -2.722248,-1.72949 -0.4339,-0.32205 -0.888713,-0.62252 -1.387508,-0.83035 -0.498795,-0.20782 -1.046204,-0.3202 -1.582668,-0.25543 -0.436763,0.0527 -0.850572,0.21958 -1.256569,0.38901 -0.405998,0.16944 -0.8151361,0.34454 -1.2493354,0.41535 -0.3340677,0.0545 -0.678733,0.0464 -1.0051847,0.1358 -0.1632259,0.0447 -0.321511,0.11459 -0.4529729,0.22117 -0.1314619,0.10659 -0.2349132,0.25187 -0.2743194,0.41646 -0.034066,0.14229 -0.019404,0.29303 0.02183,0.4334 0.041234,0.14038 0.1081254,0.27178 0.1793048,0.39961 0.071179,0.12782 0.1471544,0.25326 0.2084321,0.38612 0.061278,0.13285 0.1078962,0.27447 0.1163638,0.42053 z"
       id="path2898"
       inkscape:connector-curvature="0"
       inkscape:path-effect="#path-effect2900"
       inkscape:original-d="m 8.174106,274.44809 c 0.1750652,0.5468 -3.5678322,0.206 -5.3521161,0.30937 -1.7842836,0.10337 0.1446182,2.96972 0.2165598,4.45494 0.071941,1.48523 -1.2991127,1.73223 -1.9490365,2.59872 -0.64992388,0.86648 1.1346048,2.18597 1.7015398,3.27933 0.5669347,1.09335 0.4952383,1.58785 0.74249,2.38216 0.2472518,0.79429 1.7327219,3.05221 2.5987154,4.57868 0.8659935,1.52648 2.3720883,0.51537 3.5577654,0.77343 1.1856752,0.25805 3.8158182,0.51537 5.7233602,0.77343 1.907542,0.25805 3.630197,1.67035 5.444928,2.5059 1.814731,0.83555 1.89772,-1.91834 2.846211,-2.87715 0.948493,-0.9588 -2.1241,-4.95018 -3.186519,-7.4249 -1.062419,-2.47472 1.4646,-2.82583 2.196533,-4.23838 0.731933,-1.41255 1.320227,-1.44398 1.979974,-2.1656 0.659746,-0.72162 -1.443486,-3.27958 -2.165597,-4.91899 -0.722109,-1.63943 -3.299711,-0.28899 -4.949933,-0.43312 -1.650224,-0.14413 -3.794705,-1.8771 -5.692424,-2.81527 -1.8977198,-0.93819 -1.670358,0.536 -2.5059044,0.80436 -0.8355465,0.26837 -1.1547396,0.51537 -1.732477,0.77343 -0.5777372,0.25805 0.3508655,1.09286 0.5259304,1.63966 z" />
  </g>
</svg>
